<svg xmlns="http://www.w3.org/2000/svg" viewBox="0 0 512 512" fill="none">
  <!-- Background circle with teal color -->
  <circle cx="256" cy="256" r="256" fill="#36B5AC"/>

  <!-- Cookbook/Recipe book illustration -->
  <!-- Book pages (white) -->
  <rect x="140" y="120" width="232" height="272" rx="8" fill="#FFFFFF" opacity="0.95"/>

  <!-- Book spine shadow -->
  <rect x="254" y="120" width="4" height="272" fill="#2A9A92" opacity="0.3"/>

  <!-- Left page -->
  <rect x="160" y="160" width="80" height="4" rx="2" fill="#36B5AC" opacity="0.6"/>
  <rect x="160" y="180" width="70" height="3" rx="1.5" fill="#2A9A92" opacity="0.4"/>
  <rect x="160" y="195" width="75" height="3" rx="1.5" fill="#2A9A92" opacity="0.4"/>
  <rect x="160" y="210" width="65" height="3" rx="1.5" fill="#2A9A92" opacity="0.4"/>

  <!-- Chef hat icon on left page -->
  <g transform="translate(175, 235)">
    <ellipse cx="25" cy="35" rx="28" ry="8" fill="#36B5AC" opacity="0.3"/>
    <path d="M 15 35 Q 15 20 25 15 Q 35 20 35 35 Z" fill="#36B5AC" opacity="0.6"/>
    <circle cx="25" cy="20" r="6" fill="#36B5AC" opacity="0.5"/>
  </g>

  <!-- Right page - utensils icon -->
  <g transform="translate(285, 160)">
    <!-- Fork -->
    <path d="M 10 0 L 10 25 Q 10 30 15 30 Q 20 30 20 25 L 20 10" stroke="#36B5AC" stroke-width="3" fill="none" stroke-linecap="round"/>
    <line x1="10" y1="0" x2="10" y2="12" stroke="#36B5AC" stroke-width="3" stroke-linecap="round"/>
    <line x1="15" y1="0" x2="15" y2="12" stroke="#36B5AC" stroke-width="3" stroke-linecap="round"/>
    <line x1="20" y1="0" x2="20" y2="12" stroke="#36B5AC" stroke-width="3" stroke-linecap="round"/>

    <!-- Spoon -->
    <path d="M 35 8 Q 35 0 42 0 Q 49 0 49 8 Q 49 15 42 15 L 42 30" stroke="#36B5AC" stroke-width="3" fill="none" stroke-linecap="round"/>
  </g>

  <!-- Decorative lines on right page -->
  <rect x="280" y="210" width="70" height="3" rx="1.5" fill="#2A9A92" opacity="0.4"/>
  <rect x="280" y="225" width="65" height="3" rx="1.5" fill="#2A9A92" opacity="0.4"/>
  <rect x="280" y="240" width="75" height="3" rx="1.5" fill="#2A9A92" opacity="0.4"/>
  <rect x="280" y="255" width="60" height="3" rx="1.5" fill="#2A9A92" opacity="0.4"/>

  <!-- Bottom decorative element - recipe card -->
  <g transform="translate(180, 310)">
    <rect width="152" height="50" rx="4" fill="#FFFFFF" opacity="0.8"/>
    <rect x="10" y="10" width="50" height="30" rx="3" fill="#36B5AC" opacity="0.3"/>
    <rect x="70" y="12" width="70" height="4" rx="2" fill="#36B5AC" opacity="0.5"/>
    <rect x="70" y="22" width="60" height="3" rx="1.5" fill="#2A9A92" opacity="0.4"/>
    <rect x="70" y="32" width="65" height="3" rx="1.5" fill="#2A9A92" opacity="0.4"/>
  </g>
</svg>
